<svg width="18" height="14" viewBox="0 0 18 14" fill="none" xmlns="http://www.w3.org/2000/svg">
<path d="M17.3702 13.9879C14.3849 13.9906 11.3996 13.9919 8.41503 14.0001C8.12193 14.0007 8.04865 13.882 8.07579 13.6059C8.17078 12.6438 8.66199 11.9687 9.5094 11.5284C9.97077 11.2889 10.4599 11.1016 10.8921 10.8085C11.2809 10.5453 11.5835 10.2352 11.5353 9.70127C11.515 9.47873 11.4471 9.36746 11.2239 9.35185C10.8521 9.32675 10.481 9.28807 10.12 9.18766C9.73534 9.08046 9.37575 8.92441 9.06094 8.67134C8.92999 8.56618 8.873 8.46848 8.97613 8.30022C9.16474 7.99219 9.19866 7.64074 9.2102 7.28862C9.24412 6.2492 9.18306 5.20842 9.27533 4.17036C9.33504 3.50206 9.43206 2.84598 9.75501 2.24417C10.0773 1.64373 10.5732 1.29363 11.2524 1.20747C11.4315 1.18508 11.6066 1.16133 11.764 1.0521C12.6507 0.436723 13.7207 0.465897 14.5918 1.10977C15.25 1.59623 15.5526 2.29099 15.7541 3.04681C15.9359 3.72731 15.9902 4.42614 16.0295 5.12565C16.0743 5.92624 16.0757 6.72956 16.1659 7.52744C16.1951 7.78797 16.2304 8.05325 16.3823 8.26833C16.535 8.48476 16.457 8.61503 16.2819 8.74733C15.7751 9.13067 15.1794 9.2494 14.5688 9.32336C14.5464 9.32607 14.5233 9.32539 14.5009 9.32607C13.9412 9.34982 13.7465 9.70262 14.0124 10.2155C14.1983 10.5738 14.5159 10.7922 14.8571 10.9754C15.2059 11.162 15.5614 11.3357 15.9189 11.5046C16.672 11.8602 17.147 12.445 17.3709 13.2409V13.9872L17.3702 13.9879Z" fill="#606E79"/>
<path d="M0.00135827 12.9701C0.0793826 12.6763 0.141801 12.3771 0.237465 12.0887C0.49732 11.3065 1.03874 10.7901 1.80542 10.514C2.23014 10.3614 2.66979 10.2514 3.09587 10.1022C3.93718 9.80772 4.37479 9.01255 3.94532 8.24044C3.61355 7.64407 3.2051 7.07279 2.82855 6.4927C2.62772 6.18332 2.38347 5.92007 2.31359 5.5442C2.28102 5.36983 2.28238 5.18528 2.38687 5.05366C2.5843 4.80534 2.52392 4.55566 2.47235 4.28699C2.35973 3.69943 2.27288 3.10984 2.34344 2.506C2.51035 1.06763 3.31841 0.249396 4.75541 0.062816C5.31108 -0.00978052 5.87557 -0.0586304 6.39596 0.14559C6.92449 0.352524 7.43606 0.624591 7.91302 0.932618C8.42866 1.26575 8.62949 1.98425 8.46327 2.57859C8.27058 3.26724 8.19459 3.97353 8.1627 4.68593C8.14167 5.1595 8.1566 5.6324 8.11724 6.10733C8.0555 6.86179 7.71016 7.46088 7.2047 7.98534C7.05883 8.13596 6.99709 8.28726 6.99505 8.49352C6.98284 9.66727 7.15788 9.90609 8.28822 10.2304C8.53586 10.3016 8.79097 10.3505 9.02165 10.4747C8.98908 10.6375 8.84728 10.6585 8.74822 10.7189C7.65724 11.3899 7.05137 12.3506 7.00726 13.6404C6.99844 13.8989 6.90617 14 6.64428 13.9993C4.42975 13.9905 2.21521 13.9898 0 13.9871C0 13.6479 0 13.3086 0 12.9694L0.00135827 12.9701Z" fill="#606E79"/>
</svg>
