<svg width="21" height="13" viewBox="0 0 21 13" fill="none" xmlns="http://www.w3.org/2000/svg">
<path d="M9.22461 0.390213C9.33713 0.468376 9.42681 0.561821 9.48851 0.66519C9.55021 0.768559 9.58273 0.879819 9.58418 0.992588C9.58563 1.10536 9.556 1.21742 9.49698 1.32234C9.43797 1.42727 9.35073 1.523 9.24026 1.60403L4.15621 5.34665L18.8061 5.15776C19.1233 5.15367 19.4286 5.24002 19.655 5.39781C19.8813 5.5556 20.0101 5.77191 20.0131 5.99915C20.016 6.22639 19.8928 6.44595 19.6706 6.60953C19.4484 6.7731 19.1454 6.8673 18.8282 6.87139L4.17831 7.06028L9.35718 10.672C9.58392 10.8301 9.71295 11.0467 9.71589 11.2744C9.71882 11.502 9.59542 11.722 9.37283 11.8858C9.15024 12.0497 8.84669 12.144 8.52897 12.1481C8.21124 12.1522 7.90537 12.0657 7.67863 11.9077L0.43688 6.85929C0.324363 6.78112 0.234682 6.68768 0.172979 6.58431C0.111276 6.48094 0.0787655 6.36968 0.0773115 6.25691C0.0758575 6.14414 0.105489 6.03208 0.164506 5.92716C0.223523 5.82223 0.310765 5.7265 0.42123 5.64547L7.5304 0.412057C7.64048 0.330747 7.77168 0.265665 7.91649 0.220546C8.0613 0.175426 8.21686 0.151155 8.37426 0.149126C8.53166 0.147096 8.68779 0.167349 8.83372 0.20872C8.97964 0.25009 9.11248 0.311767 9.22461 0.390213Z" fill="black"/>
</svg>
