<svg width="20" height="20" viewBox="0 0 20 20" fill="none" xmlns="http://www.w3.org/2000/svg">
<path d="M9.98445 19.2527C6.89217 19.2527 3.79989 19.2527 0.707605 19.2527C-0.0287984 19.2527 -0.0841823 19.1792 0.0696625 18.5213C0.413249 17.054 1.55785 16.2307 2.97425 15.6427C3.76399 15.3147 4.58244 15.0436 5.38038 14.7312C5.73936 14.5906 6.08807 14.4262 6.4255 14.2488C7.09422 13.8979 7.50139 13.41 7.40908 12.6703C7.38652 12.4893 7.3978 12.3028 7.41319 12.12C7.44908 11.678 7.36396 11.2903 7.0214 10.932C6.79473 10.6949 6.65935 10.3788 6.52396 10.083C6.30448 9.60153 6.14038 9.13477 5.71269 8.7112C5.22039 8.22331 5.07167 7.52686 5.52808 6.87818C5.66038 6.68891 5.63679 6.51157 5.59064 6.30852C5.3691 5.33458 5.18346 4.3634 5.32397 3.35363C5.57936 1.52613 6.80191 0.373942 8.83266 0.110244C9.59983 0.0100943 10.3988 -0.099245 11.1126 0.163534C12.0583 0.512681 13.0008 0.926147 13.8306 1.45538C14.6306 1.96624 14.7741 2.84186 14.8275 3.6844C14.8818 4.549 14.7085 5.39155 14.4593 6.22123C14.3772 6.49504 14.3567 6.72474 14.5413 6.99762C14.9085 7.54156 14.649 8.57154 14.0695 8.95652C13.8418 9.10812 13.7454 9.2781 13.6839 9.51424C13.5229 10.1308 13.2552 10.7105 12.7875 11.1966C12.6429 11.3473 12.5793 11.5025 12.5854 11.6964C12.5937 11.9408 12.606 12.188 12.5834 12.4305C12.4931 13.4008 13.0213 14.0191 13.9475 14.4381C14.8183 14.8323 15.7423 15.1116 16.6316 15.4654C17.369 15.7585 18.0777 16.0929 18.6808 16.5808C19.3915 17.155 19.8059 17.8717 19.9762 18.7161C20.0582 19.1204 19.9382 19.2646 19.4644 19.2591C17.8931 19.2398 16.3208 19.2518 14.7495 19.2527C13.1608 19.2527 11.5721 19.2527 9.98342 19.2527H9.98445Z" fill="#606E79"/>
</svg>
