<svg width="15" height="20" viewBox="0 0 15 20" fill="none" xmlns="http://www.w3.org/2000/svg">
<path d="M7.5 15C7.99728 15 8.47419 14.8025 8.82582 14.4508C9.17746 14.0992 9.375 13.6223 9.375 13.125C9.375 12.6277 9.17746 12.1508 8.82582 11.7992C8.47419 11.4475 7.99728 11.25 7.5 11.25C7.00272 11.25 6.52581 11.4475 6.17418 11.7992C5.82254 12.1508 5.625 12.6277 5.625 13.125C5.625 13.6223 5.82254 14.0992 6.17418 14.4508C6.52581 14.8025 7.00272 15 7.5 15ZM13.125 6.5625C13.6223 6.5625 14.0992 6.76004 14.4508 7.11168C14.8025 7.46331 15 7.94022 15 8.4375V17.8125C15 18.3098 14.8025 18.7867 14.4508 19.1383C14.0992 19.49 13.6223 19.6875 13.125 19.6875H1.875C1.37772 19.6875 0.900805 19.49 0.549175 19.1383C0.197544 18.7867 0 18.3098 0 17.8125V8.4375C0 7.94022 0.197544 7.46331 0.549175 7.11168C0.900805 6.76004 1.37772 6.5625 1.875 6.5625H2.8125V4.6875C2.8125 3.4443 3.30636 2.25201 4.18544 1.37294C5.06451 0.49386 6.2568 0 7.5 0C8.11557 0 8.72511 0.121246 9.29383 0.356815C9.86254 0.592384 10.3793 0.937662 10.8146 1.37294C11.2498 1.80821 11.5951 2.32496 11.8307 2.89367C12.0663 3.46238 12.1875 4.07193 12.1875 4.6875V6.5625H13.125ZM7.5 1.875C6.75408 1.875 6.03871 2.17132 5.51126 2.69876C4.98382 3.22621 4.6875 3.94158 4.6875 4.6875V6.5625H10.3125V4.6875C10.3125 3.94158 10.0162 3.22621 9.48874 2.69876C8.96129 2.17132 8.24592 1.875 7.5 1.875Z" fill="#606E79"/>
</svg>
