<svg width="13" height="14" viewBox="0 0 13 14" fill="none" xmlns="http://www.w3.org/2000/svg">
<path d="M7.6264 10.658C6.79404 10.658 5.96139 10.658 5.12903 10.658C4.35389 10.6576 3.8227 10.1944 3.60442 9.32489C2.94428 6.69667 2.28498 4.06846 1.62568 1.43992C1.56929 1.21517 1.51989 1.1697 1.31836 1.16872C1.05793 1.16709 0.797222 1.17428 0.537074 1.16578C0.183975 1.154 -0.0387702 0.868083 0.00561132 0.496783C0.0371529 0.232457 0.219145 0.0217811 0.44831 0.0155655C0.801409 0.00607856 1.15758 -0.017148 1.50789 0.0217812C2.01646 0.0783758 2.37347 0.414345 2.53089 0.986834C2.72908 1.70719 2.90549 2.43605 3.08106 3.16458C3.11762 3.31703 3.1768 3.35563 3.30436 3.35563C6.28072 3.3517 9.25707 3.35269 12.2334 3.35269C12.28 3.35269 12.3264 3.35138 12.373 3.35334C12.7498 3.36839 12.965 3.70795 12.8659 4.13683C12.646 5.08847 12.4238 6.03913 12.2024 6.99012C12.0227 7.76249 11.8426 8.53485 11.6634 9.30755C11.4628 10.1728 10.9215 10.6573 10.152 10.6583C9.31011 10.659 8.46853 10.6583 7.62668 10.6583L7.6264 10.658Z" fill="#606E79"/>
<path d="M6.22141 12.8697C6.22085 13.4998 5.79239 14.0006 5.25478 13.9997C4.72416 13.9987 4.28481 13.4834 4.28565 12.8639C4.28648 12.2498 4.73839 11.7228 5.25953 11.7287C5.79266 11.7346 6.22197 12.2439 6.22141 12.8701V12.8697Z" fill="#606E79"/>
<path d="M10.0199 13.9996C9.48899 13.9986 9.05075 13.4841 9.05299 12.8645C9.05522 12.2439 9.4968 11.7273 10.0238 11.7286C10.548 11.7299 10.9938 12.2553 10.9918 12.8694C10.9899 13.4906 10.5514 14.0009 10.0202 13.9999L10.0199 13.9996Z" fill="#606E79"/>
</svg>
