<svg width="13" height="14" viewBox="0 0 13 14" fill="none" xmlns="http://www.w3.org/2000/svg">
<path d="M3.10066 12.4758C2.17194 12.4758 1.24377 12.4771 0.315052 12.4752C0.0107003 12.4746 -0.016714 12.4243 0.00622426 12.1051C0.0946207 10.8729 0.702766 10.0799 1.75401 9.66486C2.13725 9.51318 2.53 9.3894 2.91603 9.24682C3.17059 9.15278 3.42739 9.06238 3.673 8.94467C4.08141 8.7493 4.31135 8.43926 4.28394 7.91019C4.26492 7.53888 4.26268 7.20396 3.95721 6.94549C3.81734 6.82718 3.72894 6.62999 3.63383 6.45829C3.46208 6.14704 3.35466 5.81394 3.09954 5.53363C2.83491 5.24361 2.75714 4.79039 3.00555 4.38994C3.09898 4.23826 3.0324 4.12541 2.99772 3.99435C2.70903 2.9077 2.84834 1.89689 3.49453 1.00074C4.11162 0.145861 5.59926 -0.272176 6.49665 0.19258C6.97779 0.441946 7.41194 0.79567 7.88693 1.07477C8.39102 1.37024 8.51186 1.99821 8.58739 2.58735C8.65341 3.10125 8.6355 3.61151 8.44361 4.09932C8.39997 4.20974 8.41899 4.29893 8.47941 4.40632C8.70208 4.80434 8.58124 5.43534 8.23492 5.70837C8.14093 5.78239 8.06932 5.8558 8.03295 5.98079C7.9026 6.43281 7.66258 6.81201 7.35488 7.14268C7.27431 7.22884 7.18703 7.31074 7.20214 7.44787C7.23011 7.70148 7.13556 7.81433 6.90003 7.88228C6.47147 8.00545 6.2544 8.35432 6.25216 8.85184C6.24824 9.92939 6.25104 11.0069 6.24992 12.0845C6.24992 12.4595 6.23537 12.4752 5.88794 12.4758C4.95922 12.4777 4.03106 12.4758 3.10234 12.4758H3.10066Z" fill="#606E79"/>
<path d="M10.004 13.9993C9.25205 13.9993 8.49956 14.0012 7.74764 13.9987C7.323 13.9975 7.12606 13.7991 7.12382 13.3435C7.11823 12.0548 7.11823 10.7655 7.12382 9.47676C7.12606 8.99623 7.33083 8.77841 7.7812 8.7772C9.26716 8.77235 10.7526 8.77235 12.2385 8.7772C12.7135 8.77902 12.8886 8.98167 12.8892 9.49739C12.8903 10.7661 12.8903 12.0353 12.8892 13.304C12.8892 13.8361 12.7342 13.9987 12.2335 13.9993C11.4905 14.0005 10.7475 13.9993 10.0051 13.9993H10.004ZM9.98272 10.3316C10.2143 10.3316 10.4465 10.3341 10.6781 10.3304C10.8023 10.3286 10.8997 10.2746 10.9053 10.1229C10.9114 9.95547 10.8124 9.89055 10.6742 9.88934C10.2294 9.88691 9.78411 9.88691 9.33933 9.88934C9.21457 9.88994 9.11442 9.95183 9.10827 10.0962C9.10155 10.2588 9.20618 10.3268 9.34269 10.3298C9.55585 10.3347 9.769 10.331 9.98216 10.331L9.98272 10.3316Z" fill="#606E79"/>
</svg>
