<svg width="13" height="14" viewBox="0 0 13 14" fill="none" xmlns="http://www.w3.org/2000/svg">
<path d="M6.43498 13.9952C4.442 13.9952 2.44903 13.9952 0.456052 13.9952C-0.0185606 13.9952 -0.0542555 13.9418 0.0448975 13.4636C0.266339 12.3969 1.00404 11.7985 1.91691 11.371C2.42589 11.1326 2.95338 10.9356 3.46766 10.7085C3.69901 10.6063 3.92376 10.4867 4.14124 10.3578C4.57222 10.1027 4.83465 9.74802 4.77516 9.21036C4.76061 9.07878 4.76788 8.9432 4.7778 8.81029C4.80093 8.48903 4.74607 8.20717 4.52529 7.94669C4.3792 7.77437 4.29195 7.54462 4.2047 7.32955C4.06324 6.97957 3.95747 6.64028 3.68183 6.33237C3.36454 5.97772 3.26869 5.47145 3.56284 4.99991C3.64812 4.86232 3.63291 4.73341 3.60317 4.58581C3.46039 3.87783 3.34074 3.17186 3.4313 2.43783C3.5959 1.10938 4.38383 0.271827 5.69265 0.0801392C6.18709 0.00733781 6.70203 -0.0721434 7.1621 0.118877C7.77156 0.372679 8.37904 0.673237 8.9138 1.05795C9.4294 1.4293 9.52194 2.06581 9.55631 2.67828C9.59135 3.30677 9.47963 3.91924 9.31901 4.52236C9.26612 4.72139 9.2529 4.88837 9.37189 5.08673C9.60853 5.48213 9.44129 6.23085 9.06782 6.5107C8.92107 6.62091 8.85894 6.74447 8.81927 6.91612C8.7155 7.36428 8.54297 7.78573 8.24154 8.13905C8.14834 8.24858 8.10736 8.36146 8.11132 8.50239C8.11661 8.68005 8.12454 8.85971 8.11 9.03604C8.05183 9.74134 8.39226 10.1908 8.98916 10.4954C9.55036 10.7819 10.1459 10.985 10.719 11.2421C11.1943 11.4552 11.6511 11.6983 12.0398 12.053C12.4979 12.4704 12.7649 12.9914 12.8746 13.6052C12.9275 13.899 12.8502 14.0039 12.5448 13.9999C11.5321 13.9859 10.5188 13.9945 9.50607 13.9952C8.48215 13.9952 7.45823 13.9952 6.43431 13.9952H6.43498Z" fill="#606E79"/>
</svg>
