<svg width="13" height="14" viewBox="0 0 13 14" fill="none" xmlns="http://www.w3.org/2000/svg">
<path d="M10.9357 1.55284C10.8688 1.50481 10.8169 1.52094 10.7673 1.52058C10.3676 1.51879 9.96797 1.51664 9.56834 1.5213C9.46041 1.52237 9.41885 1.4704 9.42025 1.33167C9.42415 0.949557 9.42443 0.567082 9.42025 0.184966C9.41885 0.0426583 9.46682 2.09461e-06 9.57168 0.000360552C10.6267 0.00322821 11.6814 0.00358632 12.7364 1.74454e-06C12.8519 -0.000356713 12.8904 0.0544868 12.8901 0.200021C12.8873 1.55607 12.8876 2.91175 12.8901 4.2678C12.8901 4.4058 12.8519 4.46101 12.7437 4.45921C12.4464 4.4542 12.1488 4.4542 11.8516 4.45921C11.7419 4.46101 11.7051 4.40222 11.7062 4.26601C11.7099 3.83586 11.7082 3.40571 11.7065 2.97592C11.7065 2.91283 11.721 2.8458 11.6786 2.76192C11.525 2.97735 11.3755 3.18526 11.2271 3.3946C10.6702 4.18033 10.1122 4.965 9.55857 5.75468C9.48244 5.86329 9.43475 5.85791 9.35889 5.75898C9.0432 5.34568 8.71886 4.94277 8.40623 4.52553C8.31754 4.40724 8.27237 4.42194 8.18814 4.53091C7.22516 5.77655 6.25799 7.01717 5.29194 8.25886C5.20363 8.37238 5.11392 8.37094 5.02282 8.25456C4.71047 7.85345 4.39645 7.45449 4.08773 7.04907C4.01996 6.96017 3.97896 6.96017 3.90785 7.04369C3.10885 7.98249 2.3065 8.91663 1.50611 9.85364C1.26236 10.139 1.2632 10.1426 1.03898 9.82927C0.875275 9.60057 0.716312 9.36686 0.551493 9.13995C0.490417 9.05607 0.490696 8.99657 0.558186 8.91771C1.48436 7.83911 2.40885 6.758 3.33363 5.67725C3.52968 5.4482 3.72797 5.22237 3.91956 4.98758C4.00434 4.88363 4.06179 4.87861 4.14797 4.99332C4.43856 5.38009 4.74171 5.75074 5.03091 6.13895C5.12824 6.26942 5.1843 6.27122 5.28497 6.1411C6.2474 4.89438 7.21624 3.65627 8.17894 2.41027C8.2746 2.28624 8.32814 2.28804 8.42045 2.41206C8.70017 2.78701 8.98993 3.14977 9.27579 3.51719C9.37209 3.64097 9.46478 3.64038 9.55383 3.5154C9.97662 2.91964 10.3991 2.32388 10.8214 1.72777C10.8584 1.67543 10.8922 1.61951 10.9354 1.5532L10.9357 1.55284Z" fill="#606E79"/>
<path d="M4.02487 2.60495C4.0232 4.05706 3.13691 5.18262 2.00102 5.18226C0.990065 5.18226 0.00672391 4.16711 3.07226e-05 2.58273C-0.0061047 1.15284 0.907516 4.08541e-05 2.01859 0.00183314C3.14444 0.00362543 4.02654 1.14782 4.02459 2.60531L4.02487 2.60495ZM1.43684 2.19201C1.50628 2.24721 1.55452 2.23682 1.59887 2.23144C1.73719 2.21459 1.79213 2.28628 1.78488 2.46766C1.77596 2.68812 1.7807 2.90964 1.78321 3.13045C1.78851 3.60362 1.71907 3.55379 2.13404 3.55594C2.21408 3.5563 2.25396 3.51758 2.25368 3.40897C2.25229 2.86555 2.2534 2.32213 2.25285 1.77871C2.25285 1.72601 2.25731 1.65181 2.20655 1.64464C2.0844 1.6278 1.94831 1.57259 1.844 1.68443C1.70261 1.83606 1.57823 2.01385 1.43711 2.19237L1.43684 2.19201Z" fill="#606E79"/>
<path d="M12.3077 10.1171C12.3077 11.3291 12.3077 12.5407 12.3077 13.7526C12.3077 13.9928 12.3058 13.9957 12.1242 13.9964C11.8456 13.9975 11.5667 13.9928 11.2884 13.9982C11.1799 14.0003 11.1431 13.9476 11.1431 13.8085C11.1453 11.3492 11.1456 8.88979 11.1428 6.43041C11.1428 6.27628 11.1913 6.23577 11.3004 6.23792C11.579 6.24366 11.8579 6.24688 12.1362 6.23649C12.2712 6.23147 12.3108 6.29348 12.3102 6.46375C12.3058 7.68143 12.3077 8.89911 12.3077 10.1171Z" fill="#606E79"/>
<path d="M8.31662 10.6663C8.31662 11.6994 8.31355 12.7324 8.31941 13.7659C8.32053 13.9491 8.27339 14.0057 8.13479 13.9996C7.87013 13.9885 7.60519 13.9967 7.34025 13.9964C7.13834 13.9964 7.13611 13.9939 7.13611 13.7394C7.13583 12.336 7.13611 10.9326 7.13611 9.52927C7.13611 8.88441 7.13583 8.23918 7.13639 7.59432C7.13639 7.34985 7.1389 7.3477 7.33328 7.34734C7.59822 7.34698 7.86288 7.34662 8.12782 7.34734C8.31411 7.3477 8.31634 7.34985 8.31662 7.585C8.31718 8.61233 8.31662 9.63932 8.31662 10.6667V10.6663Z" fill="#606E79"/>
<path d="M9.13903 10.6735C9.13903 9.64613 9.13903 8.61915 9.13903 7.59181C9.13903 7.35092 9.14182 7.34806 9.32282 7.34734C9.59222 7.34662 9.8619 7.34662 10.1313 7.34734C10.3148 7.3477 10.3198 7.35307 10.3198 7.58715C10.3201 9.18157 10.3198 10.7763 10.3198 12.3708C10.3198 12.8368 10.3159 13.3024 10.3218 13.7684C10.324 13.9344 10.2869 14.005 10.1486 13.9996C9.86998 13.9888 9.59082 13.9896 9.3125 13.9996C9.17891 14.0043 9.13541 13.9451 9.13624 13.7734C9.14098 12.7403 9.13847 11.7069 9.13847 10.6738L9.13903 10.6735Z" fill="#606E79"/>
<path d="M3.14268 11.5875C3.14268 10.8595 3.14575 10.1314 3.14017 9.40341C3.13878 9.23422 3.17921 9.17006 3.31447 9.17508C3.59754 9.18547 3.88088 9.18224 4.16395 9.17615C4.27299 9.174 4.32487 9.21343 4.32459 9.36721C4.32208 10.8473 4.32236 12.3274 4.32431 13.8071C4.32431 13.9429 4.28805 14.0006 4.17817 13.9985C3.88563 13.9924 3.59308 13.9913 3.30081 13.9992C3.17838 14.0024 3.13961 13.9436 3.14045 13.7899C3.14491 13.0557 3.1424 12.322 3.1424 11.5879L3.14268 11.5875Z" fill="#606E79"/>
<path d="M6.31089 11.7846C6.31089 12.4474 6.30699 13.1106 6.3134 13.7734C6.31508 13.9451 6.27297 14.0046 6.13882 13.9996C5.86022 13.9892 5.58134 13.9924 5.30245 13.9985C5.19174 14.001 5.14544 13.9576 5.146 13.8049C5.14935 12.4492 5.14935 11.0935 5.146 9.73785C5.14572 9.59017 5.18504 9.5364 5.29911 9.53891C5.58719 9.545 5.87528 9.54536 6.16337 9.53891C6.28133 9.53604 6.3134 9.59985 6.31257 9.74287C6.30838 10.4236 6.31062 11.1047 6.31089 11.7854V11.7846Z" fill="#606E79"/>
<path d="M2.3201 12.5152C2.3201 12.9393 2.31647 13.363 2.32205 13.787C2.324 13.9383 2.2883 14.0024 2.16364 13.9992C1.87109 13.991 1.57827 13.9928 1.28572 13.9985C1.17695 14.0007 1.13763 13.9465 1.13819 13.8089C1.1407 12.9371 1.14098 12.0653 1.13819 11.1936C1.13763 11.0505 1.1856 11.0068 1.2899 11.0086C1.58245 11.0133 1.87528 11.014 2.16782 11.0086C2.28133 11.0065 2.324 11.0595 2.32233 11.2079C2.31703 11.6438 2.32037 12.0797 2.32037 12.5156L2.3201 12.5152Z" fill="#606E79"/>
</svg>
