<svg width="13" height="14" viewBox="0 0 13 14" fill="none" xmlns="http://www.w3.org/2000/svg">
<path d="M6.43418 10.5248C4.42603 10.5248 2.41788 10.5193 0.409723 10.5309C0.111779 10.5329 0.0112148 10.4588 0.0461935 10.1116C0.192355 8.65981 0.306036 7.20458 0.447824 5.75276C0.504665 5.16672 0.829467 4.78624 1.36976 4.65896C1.56777 4.61199 1.62086 4.52146 1.61899 4.31863C1.61212 3.58149 1.62648 2.84435 1.61149 2.10789C1.60525 1.80636 1.70956 1.71379 1.97564 1.71583C3.18241 1.72536 4.3898 1.72536 5.59657 1.71583C5.86578 1.71379 5.96572 1.81453 5.96072 2.11129C5.9476 2.83686 5.96447 3.56243 5.9526 4.288C5.94823 4.5555 6.03568 4.64398 6.27928 4.6399C7.10128 4.62765 7.92328 4.62969 8.74528 4.63854C8.96514 4.64058 9.06821 4.57387 9.06508 4.31319C9.05509 3.45217 9.11818 3.58013 8.40923 3.56788C8.22247 3.56447 8.03571 3.57264 7.8502 3.52636C7.32239 3.39499 6.97073 2.97299 6.94075 2.38355C6.92076 1.98809 6.92076 1.58923 6.9395 1.19378C6.97448 0.470248 7.43233 0.005365 8.09817 0.00332305C9.12817 -0.000760835 10.1582 -0.00144148 11.1882 0.00332305C11.8734 0.00604565 12.3244 0.49339 12.3343 1.23257C12.3393 1.59536 12.3393 1.95814 12.3343 2.32093C12.325 2.97503 11.9646 3.43787 11.3649 3.53316C11.0995 3.57536 10.8253 3.57332 10.5561 3.56379C10.31 3.55494 10.1975 3.63254 10.205 3.92726C10.2256 4.75084 10.1301 4.62288 10.8546 4.63513C10.9895 4.63718 11.1251 4.63377 11.2606 4.63581C11.9171 4.64534 12.3774 5.07279 12.4449 5.7759C12.5842 7.2284 12.6985 8.68363 12.8447 10.1355C12.8796 10.4805 12.7597 10.5309 12.4893 10.5295C10.4705 10.5207 8.45233 10.5248 6.43356 10.5248H6.43418ZM3.78579 2.97163C3.52658 2.97163 3.26673 2.97571 3.00752 2.97027C2.83575 2.96686 2.76267 3.05195 2.76392 3.23572C2.76766 3.7217 2.75954 4.20837 2.77079 4.69435C2.77828 5.002 2.94443 5.17829 3.22364 5.18986C3.59653 5.20484 3.97068 5.20347 4.3442 5.18986C4.62716 5.18033 4.78768 4.99043 4.79768 4.69163C4.81392 4.20564 4.8008 3.71898 4.80642 3.233C4.8083 3.0465 4.73647 2.9655 4.56469 2.96959C4.30548 2.97571 4.04564 2.97095 3.78642 2.97095L3.78579 2.97163ZM9.6135 2.31821C9.93518 2.31821 10.2569 2.32161 10.5779 2.31753C11.2288 2.30936 11.1807 2.42915 11.1969 1.64164C11.2038 1.31629 11.077 1.23666 10.8065 1.2421C10.1219 1.25503 9.43736 1.2421 8.75277 1.24755C8.0076 1.25299 8.09255 1.14273 8.08068 2.00171C8.07756 2.23245 8.14876 2.32842 8.36801 2.32161C8.78275 2.30936 9.1975 2.31821 9.61225 2.31821H9.6135ZM4.8008 8.73604C4.79893 8.43179 4.58718 8.20717 4.3061 8.21262C4.03689 8.21738 3.84014 8.43111 3.83451 8.72515C3.82827 9.0362 4.02815 9.26218 4.31172 9.2649C4.59405 9.26762 4.80205 9.04233 4.8008 8.73604ZM6.92763 8.73263C6.92513 8.42498 6.71526 8.20513 6.43168 8.21194C6.16247 8.21875 5.96697 8.43315 5.96197 8.72719C5.95697 9.03688 6.15873 9.26286 6.4423 9.26422C6.72588 9.26558 6.93013 9.04165 6.92763 8.73263ZM9.05509 8.74284C9.05696 8.43247 8.85271 8.2099 8.56913 8.21194C8.28993 8.21398 8.08318 8.44608 8.0888 8.75101C8.0938 9.04301 8.29243 9.25809 8.56102 9.26422C8.84584 9.27035 9.05322 9.05186 9.05509 8.74284ZM3.73707 7.01128C3.7427 6.72677 3.50971 6.46131 3.25049 6.45587C2.99752 6.45042 2.7814 6.68116 2.77016 6.96908C2.75767 7.28354 2.95005 7.52244 3.22863 7.53878C3.48598 7.55375 3.73145 7.29919 3.73707 7.01128ZM9.63411 7.53878C9.9077 7.54218 10.1201 7.30532 10.1194 6.99698C10.1188 6.70362 9.92206 6.46948 9.66472 6.45519C9.40987 6.44157 9.16127 6.69682 9.15253 6.98201C9.14379 7.2706 9.37302 7.53538 9.63411 7.53878ZM5.39606 7.53878C5.65778 7.52721 5.87702 7.25971 5.86203 6.97044C5.84829 6.69818 5.61593 6.4511 5.37608 6.45382C5.11311 6.45655 4.89387 6.70975 4.89762 7.00787C4.90074 7.29783 5.1381 7.55103 5.39669 7.53946L5.39606 7.53878ZM7.02632 7.00923C7.03069 7.29851 7.27242 7.55375 7.52914 7.53878C7.77899 7.52448 7.99136 7.27877 7.99261 7.00175C7.99386 6.70567 7.77025 6.45246 7.50853 6.45314C7.25431 6.45382 7.02258 6.722 7.02695 7.00923H7.02632Z" fill="#606E79"/>
<path d="M6.44421 11.592C8.45236 11.592 10.4605 11.592 12.4687 11.592C12.8734 11.592 12.8853 11.607 12.8865 12.0549C12.8872 12.304 12.8965 12.5545 12.8815 12.8029C12.8384 13.5237 12.3825 13.9968 11.7204 13.9975C8.20314 14.0009 4.68653 14.0009 1.16929 13.9975C0.4947 13.9975 0.0387273 13.5094 0.00562244 12.7702C-0.00437148 12.5443 0.00187476 12.3169 0.00249938 12.0903C0.00374862 11.5961 0.00624697 11.592 0.450352 11.592C2.35482 11.592 4.25866 11.592 6.16313 11.592C6.25682 11.592 6.35051 11.592 6.44421 11.592ZM6.42484 13.3413C6.70717 13.3481 6.92267 13.1262 6.92704 12.8227C6.93141 12.5082 6.73528 12.2883 6.44733 12.287C6.17 12.2856 5.97574 12.4844 5.962 12.7825C5.94826 13.0895 6.15063 13.3345 6.42484 13.3413Z" fill="#606E79"/>
</svg>
