<svg width="13" height="14" viewBox="0 0 13 14" fill="none" xmlns="http://www.w3.org/2000/svg">
<path d="M6.42708 14C4.47363 14 2.52076 14 0.567311 14C0.0870584 14 0 13.9065 0 13.3909C0 9.86327 0 6.33563 0 2.80799C0 2.34931 0.0398296 2.29051 0.442695 2.14443C2.36598 1.44496 4.29041 0.747978 6.21256 0.0448023C6.37473 -0.014621 6.52324 -0.0146209 6.68257 0.0429454C8.6326 0.75293 10.5832 1.46106 12.5349 2.16671C12.7716 2.25213 12.89 2.40874 12.89 2.68976C12.8866 6.29973 12.8889 9.90969 12.886 13.5197C12.886 13.8886 12.7608 13.9981 12.3716 13.9988C10.3897 14 8.4084 13.9994 6.42651 13.9994L6.42708 14ZM6.4726 4.8191C5.1354 4.8191 3.79821 4.82467 2.46101 4.81476C2.20154 4.81291 2.11448 4.90885 2.11561 5.19111C2.12301 7.77045 2.12244 10.3492 2.11561 12.9285C2.11505 13.1885 2.17764 13.3185 2.43597 13.2906C2.58619 13.2745 2.7404 13.2758 2.89062 13.2906C3.13188 13.3148 3.20131 13.1972 3.19846 12.9483C3.18879 12.1746 3.19049 11.4008 3.19846 10.6271C3.20187 10.2501 3.32137 10.1301 3.66733 10.1282C4.34048 10.1245 5.0142 10.1251 5.68735 10.1282C6.08396 10.1294 6.17614 10.2291 6.17728 10.655C6.17955 11.4287 6.18297 12.2024 6.175 12.9762C6.17273 13.1922 6.22166 13.2943 6.44358 13.2943C6.66493 13.2943 6.71443 13.1928 6.71272 12.9762C6.70476 12.1925 6.7076 11.4083 6.71102 10.624C6.71273 10.2378 6.8123 10.1307 7.17192 10.1282C7.83597 10.1245 8.49944 10.1257 9.16349 10.1276C9.58343 10.1282 9.68813 10.2371 9.69097 10.689C9.69553 11.2975 9.69211 11.9066 9.69211 12.515C9.69211 13.2962 9.69211 13.2826 10.4227 13.2943C10.7061 13.2987 10.7732 13.1842 10.7721 12.8976C10.7641 10.3393 10.7681 7.78098 10.767 5.22206C10.767 4.83581 10.7522 4.82033 10.3977 4.81971C9.08895 4.81848 7.7802 4.81971 6.47146 4.81971L6.4726 4.8191Z" fill="#606E79"/>
<path d="M7.93667 7.94813C7.93667 8.34986 7.93667 8.75158 7.93667 9.15269C7.93667 9.417 7.82173 9.54947 7.57079 9.54823C6.8231 9.54451 6.07541 9.54328 5.32715 9.54885C5.06028 9.5507 4.95046 9.41019 4.95102 9.13288C4.95273 8.33995 4.95501 7.54702 4.95046 6.75409C4.94875 6.45574 5.08474 6.31213 5.34592 6.30966C6.07484 6.30408 6.80375 6.29975 7.53267 6.31089C7.83652 6.31523 7.93155 6.43841 7.9361 6.7739C7.94122 7.1651 7.93724 7.55631 7.93724 7.94751L7.93667 7.94813Z" fill="#606E79"/>
</svg>
