<svg width="162" height="66" viewBox="0 0 162 66" fill="none" xmlns="http://www.w3.org/2000/svg">
<path d="M28.0306 6.76151C28.0306 8.1047 28.0306 9.44789 28.0306 10.7911C28.0306 11.3866 28.1469 12.085 27.3818 12.2731C26.5093 12.488 26.2633 11.785 26.0038 11.1403C24.6033 7.61667 22.42 4.73328 18.8719 3.20205C13.5163 0.887277 6.31293 2.67372 4.58142 8.87927C3.77607 11.7627 4.96173 14.4669 7.70887 16.0609C10.9124 17.9234 14.5007 18.7249 18.0397 19.5935C20.8227 20.2785 23.4356 21.3351 25.9009 22.7321C28.8493 24.4021 30.7016 26.9183 31.2162 30.33C32.1915 36.8401 31.6099 42.9247 26.0306 47.3841C20.42 51.8659 14.1651 51.5435 7.83862 49.3004C5.86104 48.6019 4.20112 47.3572 2.32197 49.6317C1.44503 50.6928 0.237002 50.0078 0.228053 48.6243C0.205682 45.1992 0.366752 41.774 0.483081 38.3534C0.500978 37.8161 0.724686 37.2967 1.39134 37.2833C1.99983 37.2699 2.29959 37.7176 2.55015 38.1922C3.24365 39.5085 3.86108 40.8741 4.63511 42.1367C7.20776 46.3364 11.069 48.6781 15.91 48.6243C20.7287 48.5706 24.6347 46.4484 26.921 41.8591C28.9746 37.7355 28.0171 34.4178 24.062 31.9464C20.6571 29.8196 16.8451 28.7854 13.1092 27.5452C10.6931 26.7437 8.38 25.7274 6.17423 24.4782C0.997612 21.5456 -0.0225007 16.7504 0.594935 11.3821C1.17658 6.35407 3.90135 2.83491 8.69319 1.07532C13.6819 -0.760371 18.5274 -0.169369 23.1537 2.26629C24.2946 2.86625 24.9121 2.61104 25.5832 1.70662C26.0038 1.14248 26.6302 0.811163 27.3505 1.02607C28.2185 1.28576 28.0306 2.09615 28.0529 2.72745C28.0977 4.06617 28.0664 5.40936 28.0664 6.75255C28.0529 6.75255 28.0395 6.75255 28.0306 6.75255V6.76151Z" fill="black"/>
<path d="M106.145 50.6794C105.385 49.8735 104.436 49.8914 103.635 49.587C101.157 48.6378 99.7831 47.0752 99.7697 44.9216C99.7563 42.4457 100.875 40.6458 103.166 39.6205C103.506 39.4683 103.846 39.2892 104.204 39.213C106.051 38.8235 105.993 38.2191 104.66 37.0236C100.374 33.1911 100.772 25.9916 105.532 22.8619C109.295 20.3904 113.42 19.8487 117.693 21.6262C118.449 21.9396 119.228 22.2664 119.877 22.7455C121.076 23.6231 121.832 23.4798 122.834 22.2799C124.856 19.8576 128.078 20.1084 129.067 22.5978C129.474 23.6231 129.545 24.6842 128.641 25.4946C127.742 26.3005 126.744 26.1841 125.751 25.5886C125.152 25.2304 124.615 24.4021 123.805 25.0648C123.067 25.6692 123.237 26.5244 123.416 27.3482C124.932 34.4447 121.478 38.9355 114.279 39.5309C111.049 39.7951 107.689 39.4906 104.678 41.1786C103.667 41.7427 102.562 42.2531 102.839 43.6232C103.094 44.8813 104.293 45.0738 105.331 45.0918C109.877 45.1634 114.423 45.141 118.968 45.1813C126.006 45.244 129.169 49.0094 128.087 56.0074C127.228 61.5772 124.087 64.6218 118.449 65.4859C113.908 66.1799 109.398 66.2828 104.928 65.0919C101.206 64.0979 99.1299 61.3712 99.282 57.8163C99.3849 55.4299 100.669 53.7688 102.588 52.5644C103.698 51.8704 104.906 51.3331 106.15 50.6839L106.145 50.6794ZM115.308 50.563C111.322 49.4213 108.436 51.5391 105.886 54.3777C104.007 56.4641 103.913 59.6654 105.671 61.5458C106.901 62.8622 108.629 63.2786 110.32 63.5293C115.17 64.2502 119.912 64.1696 123.706 60.4534C125.474 58.7252 126.029 56.5223 125.196 54.0777C124.445 51.8614 122.66 51.1272 120.592 50.7018C118.892 50.3481 117.188 50.4377 115.308 50.563ZM117.613 30.0883C117.613 30.0883 117.631 30.0883 117.64 30.0883C117.64 29.2734 117.68 28.4541 117.631 27.6392C117.474 24.9215 115.358 22.6112 112.982 22.5216C110.481 22.4276 108.481 24.2051 108.096 27.0482C107.796 29.2555 107.756 31.4807 108.266 33.6925C108.978 36.8043 110.092 37.7266 113.174 37.6057C115.684 37.5072 117.277 35.967 117.599 33.2C117.716 32.1747 117.617 31.1226 117.617 30.0838L117.613 30.0883Z" fill="black"/>
<path d="M156.243 36.155C156.243 39.0608 156.22 41.971 156.256 44.8768C156.265 45.7364 156.099 46.7931 157.209 47.1558C158.274 47.5005 158.847 46.7707 159.325 45.9469C159.616 45.4409 159.907 44.738 160.645 45.0962C161.428 45.4768 161.169 46.2424 160.99 46.8826C160.408 48.9601 158.949 50.1914 156.918 50.5809C154.73 51.0018 152.475 51.0062 151.138 48.79C150.256 47.3304 149.706 47.3348 148.319 48.3557C144.511 51.1629 140.122 51.4943 135.755 50.066C131.143 48.5572 130.458 41.389 134.4 37.7713C137.599 34.8342 141.527 33.8984 145.675 33.5179C146.118 33.4776 146.569 33.4821 147.012 33.4462C149.746 33.2179 149.961 32.9761 149.974 30.1599C149.974 29.5644 149.974 28.9689 149.974 28.369C149.956 23.5469 147.169 21.4336 142.44 22.6604C139.46 23.4305 139.129 24.1245 140.525 26.8064C141.2 28.1048 140.892 29.2555 140.136 30.3703C139.277 31.6374 137.984 31.5479 136.708 31.3912C135.384 31.2255 134.887 30.245 134.614 29.0898C134.037 26.6407 134.946 24.2812 137.263 22.9917C141.912 20.4038 146.824 19.8397 151.925 21.5276C154.766 22.4679 156.099 24.5498 156.176 27.4377C156.252 30.3435 156.193 33.2537 156.193 36.1595C156.207 36.1595 156.22 36.1595 156.234 36.1595L156.243 36.155ZM149.97 39.6876C149.97 38.8683 149.943 38.0489 149.974 37.2296C150.037 35.555 149.129 34.8252 147.607 35.1252C145.062 35.6267 142.48 36.1192 140.274 37.6504C138.158 39.1145 137.277 42.0606 138.252 44.4022C139.192 46.6543 141.796 48.0154 144.31 47.5677C148.502 46.8155 149.961 44.7873 149.97 39.6921V39.6876Z" fill="black"/>
<path d="M60.2181 35.6177C60.2181 38.6041 60.1868 41.586 60.236 44.5723C60.2539 45.5932 60.2405 46.7976 61.5111 47.1602C62.6431 47.4871 63.2874 46.6409 63.8511 45.8215C64.1867 45.3335 64.4686 44.6216 65.1934 45.0469C65.9719 45.5036 65.5647 46.2155 65.3052 46.8334C64.3657 49.081 62.7684 50.4958 60.2807 50.7063C57.9273 50.9033 55.9721 50.2272 54.9475 47.9124C54.4419 46.7662 53.9587 47.1692 53.3189 47.7602C49.923 50.8809 45.8068 51.1226 41.5563 50.5272C38.9926 50.169 37.0508 48.7765 36.4647 46.1439C35.7175 42.7949 36.411 39.7951 39.109 37.4131C42.1917 34.6954 45.9589 33.9522 49.8559 33.5224C50.6702 33.4328 51.489 33.388 52.3078 33.3388C53.9677 33.2358 54.7149 32.403 54.5091 30.7061C54.4285 30.0435 54.4822 29.3629 54.5091 28.6913C54.5941 26.6228 54.5583 24.4737 52.5359 23.341C50.1288 21.9933 47.5159 22.0784 45.0149 23.2648C43.7308 23.8738 43.176 24.7334 44.2945 26.0676C45.5965 27.6213 45.4802 29.2868 44.1961 30.7375C43.1581 31.915 41.704 31.727 40.4646 31.1001C38.751 30.2271 38.4557 28.6242 38.8226 26.8691C39.194 25.0961 40.1514 23.6588 41.7532 22.835C46.554 20.3725 51.5337 19.8352 56.6701 21.7247C58.9564 22.5664 60.142 24.2364 60.1734 26.6631C60.2136 29.645 60.1823 32.6314 60.1823 35.6177C60.1957 35.6177 60.2091 35.6177 60.2226 35.6177H60.2181ZM54.4867 38.2996C54.5269 35.4386 53.7932 34.767 51.046 35.3043C49.5159 35.6043 47.9812 35.9714 46.5182 36.4953C43.2252 37.6728 41.5429 40.7308 42.3169 43.9097C42.8673 46.1573 45.5204 47.8811 48.0126 47.608C51.9498 47.1737 54.1287 45.0872 54.2719 41.6487C54.3167 40.5338 54.4106 39.419 54.4867 38.3041V38.2996Z" fill="black"/>
<path d="M78.495 27.0302C80.0744 24.6483 81.3898 22.8887 83.4479 21.8276C85.2152 20.9187 87.0451 20.7844 88.8795 21.2679C90.8661 21.7918 91.4298 23.3768 91.318 25.2751C91.2151 27.0884 90.1055 27.975 88.4411 28.1182C86.5351 28.2839 85.251 27.3795 84.987 25.4229C84.7096 23.3857 83.7387 23.6275 82.647 24.6797C80.0699 27.1646 78.6292 30.2315 78.5532 33.8268C78.4726 37.7803 78.6113 41.7382 78.495 45.6872C78.4323 47.7557 79.3585 48.3512 81.1974 48.1363C81.6403 48.0825 82.0833 48.0154 82.5307 47.9975C83.1481 47.9706 83.8371 48.0154 83.9356 48.7631C84.043 49.5645 83.3539 49.7481 82.741 49.7481C78.1192 49.775 73.4973 49.7839 68.8755 49.775C68.2581 49.775 67.6004 49.6138 67.6764 48.7989C67.7435 48.0915 68.3878 48.1989 68.8979 48.1363C71.2603 47.8587 72.4414 46.5155 72.4414 44.1067C72.4414 38.0623 72.3698 32.0224 72.4817 25.9781C72.5175 23.9543 71.9224 23.0454 69.833 23.2469C69.1305 23.3141 68.0523 23.3633 68.0254 22.4231C67.9941 21.2366 69.1663 21.55 69.918 21.4784C71.994 21.2769 74.1014 21.2859 76.1416 20.9098C78.2042 20.5292 78.6605 21.3799 78.5174 23.1708C78.4324 24.2498 78.5039 25.3378 78.5039 27.0302H78.495Z" fill="black"/>
<path d="M47.301 56.7864C62.2895 56.7864 77.278 56.7775 92.262 56.8133C93.2463 56.8133 94.9778 56.2671 94.9509 57.8073C94.9286 59.0251 93.2642 58.6132 92.2933 58.6132C62.4684 58.6401 32.6436 58.64 2.81429 58.6445C2.66665 58.6445 2.51452 58.6624 2.36688 58.6445C1.47204 58.5102 0.00451418 58.9624 4.00048e-05 57.6819C-0.00890834 56.285 1.48547 56.8088 2.33556 56.8088C17.324 56.773 32.3125 56.782 47.2965 56.7864H47.301Z" fill="black"/>
<path d="M128.06 12.9223C136.024 12.9223 143.992 12.9223 151.956 12.9267C152.623 12.9267 153.294 12.9581 153.956 13.0431C154.341 13.0924 154.627 13.361 154.641 13.7953C154.654 14.2296 154.381 14.5251 154.001 14.5878C153.348 14.6998 152.677 14.7624 152.01 14.7624C135.854 14.7759 119.702 14.7759 103.546 14.7803C103.398 14.7803 103.246 14.7982 103.098 14.7803C102.284 14.6684 100.996 15.0714 101.036 13.7774C101.067 12.7118 102.275 12.9446 103.045 12.9402C108.105 12.9133 113.17 12.9223 118.23 12.9178C121.505 12.9178 124.78 12.9178 128.055 12.9178L128.06 12.9223Z" fill="black"/>
</svg>
